<?xml version="1.0" encoding="utf-8"?>
<!-- Generator: Adobe Illustrator 21.1.0, SVG Export Plug-In . SVG Version: 6.00 Build 0)  -->
<svg version="1.1" id="Layer_1" xmlns="http://www.w3.org/2000/svg" xmlns:xlink="http://www.w3.org/1999/xlink" x="0px" y="0px"
	 viewBox="0 0 600 600" style="enable-background:new 0 0 600 600;" xml:space="preserve">
<style type="text/css">
	.st0{fill:#1F212C;}
	.st1{fill:#D3A641;}
	.st2{fill:#FFFFFF;}
	.st3{fill:#2B2E38;}
	.st4{fill:#E0BF7C;}
	.st5{fill:#42454C;}
	.st6{fill:#5A86EC;}
	.st7{fill:#E5BA63;}
	.st8{opacity:0.5;fill:#8EACDE;}
	.st9{fill:#C5ADAE;}
	.st10{fill:#B59C9A;}
	.st11{fill:#E3D3CB;}
	.st12{opacity:0.2;fill:#3F72DF;}
	.st13{enable-background:new    ;}
	.st14{fill:#DDC38E;}
	.st15{fill:#C6B79B;}
</style>
<g>
	<g>
		<g>
			<polygon class="st0" points="173.3,113.6 173.3,505 286.1,570.5 286.1,179.1 			"/>
			<g>
				<polygon class="st1" points="268.6,502.7 240.6,486.5 240.6,528.8 268.6,545 				"/>
				<polygon class="st2" points="241.8,528.2 267.5,543.1 267.5,503.3 241.8,488.4 				"/>
				<polygon class="st1" points="265.8,504.3 243.4,491.3 243.4,527.2 265.8,540.2 				"/>
			</g>
			<g>
				<polygon class="st1" points="217.3,472.7 189.3,456.5 189.3,498.8 217.3,515 				"/>
				<polygon class="st2" points="190.4,498.2 216.1,513.1 216.1,473.3 190.4,458.4 				"/>
				<polygon class="st1" points="214.5,474.3 192.1,461.3 192.1,497.2 214.5,510.2 				"/>
			</g>
		</g>
		<g>
			<polygon class="st3" points="286,179.1 286,570.5 422.4,491.7 422.4,100.3 			"/>
		</g>
		<polygon class="st4" points="173.2,104.7 286,170.1 422.4,91.3 309.4,25.8 		"/>
		<polygon class="st5" points="413.5,91.3 309.4,31 182.1,104.7 286,165 		"/>
		<polygon class="st1" points="309.4,31 309.4,37.5 407.9,94.6 413.5,91.3 		"/>
		<polygon class="st1" points="173.2,104.6 173.2,113.6 286,179.1 286,170.1 190.5,114.7 		"/>
		<polygon class="st1" points="286,170.1 286,179.1 422.4,100.3 422.4,91.3 405,101.3 		"/>
		<polygon class="st1" points="173.2,499.7 173.2,508.7 286,574.1 286,565.2 190.5,509.8 		"/>
		<polygon class="st1" points="422.4,486.4 422.4,495.3 383.3,517.9 381.5,519 379.7,520 352.6,535.7 350.8,536.7 349,537.7 
			342.2,541.7 340.4,542.7 338.6,543.8 324.8,551.7 311.5,559.4 309.7,560.5 286,574.2 286,565.2 286.1,565.2 307.9,552.6 
			309.7,551.5 311.5,550.5 338.6,534.8 340.4,533.8 342.2,532.8 349,528.8 350.8,527.8 352.6,526.7 379.7,511.1 381.5,510 
			383.3,509 405,496.4 		"/>
		<g>
			<g>
				<polygon class="st6" points="295.7,436.8 323.9,420.4 323.9,463.2 295.7,479.6 				"/>
				<polygon class="st2" points="322.8,462.6 296.8,477.6 296.8,437.4 322.8,422.4 				"/>
				<polygon class="st6" points="298.4,438.4 321.1,425.3 321.1,461.6 298.4,474.7 				"/>
			</g>
			<g>
				<polygon class="st6" points="341.2,410.1 369.4,393.7 369.4,436.5 341.2,452.8 				"/>
				<polygon class="st2" points="368.3,435.8 342.3,450.9 342.3,410.7 368.3,395.7 				"/>
				<polygon class="st6" points="344,411.7 366.6,398.5 366.6,434.9 344,448 				"/>
			</g>
			<g>
				<polygon class="st6" points="386.7,383.3 414.9,367 414.9,409.8 386.7,426.1 				"/>
				<polygon class="st2" points="413.8,409.1 387.8,424.2 387.8,384 413.8,368.9 				"/>
				<polygon class="st6" points="389.5,384.9 412.2,371.8 412.2,408.2 389.5,421.3 				"/>
			</g>
			<g>
				<polygon class="st6" points="295.7,504.1 323.9,487.8 323.9,530.5 295.7,546.9 				"/>
				<polygon class="st2" points="322.8,529.9 296.8,544.9 296.8,504.7 322.8,489.7 				"/>
				<polygon class="st6" points="298.4,505.7 321.1,492.6 321.1,528.9 298.4,542.1 				"/>
			</g>
			<g>
				<polygon class="st6" points="386.7,450.6 414.9,434.3 414.9,477.1 386.7,493.4 				"/>
				<polygon class="st2" points="413.8,476.4 387.8,491.5 387.8,451.3 413.8,436.3 				"/>
				<polygon class="st6" points="389.5,452.3 412.2,439.1 412.2,475.5 389.5,488.6 				"/>
			</g>
		</g>
		<polygon class="st7" points="182.1,104.7 187.6,107.9 309.4,37.5 309.4,31 		"/>
		<g>
			<g>
				<polygon class="st6" points="295.7,355 323.9,338.7 323.9,381.4 295.7,397.8 				"/>
				<polygon class="st2" points="322.8,380.8 296.8,395.8 296.8,355.6 322.8,340.6 				"/>
				<polygon class="st6" points="298.4,356.6 321.1,343.5 321.1,379.8 298.4,393 				"/>
			</g>
			<g>
				<polygon class="st6" points="341.2,328.3 369.4,311.9 369.4,354.7 341.2,371 				"/>
				<polygon class="st2" points="368.3,354.1 342.3,369.1 342.3,328.9 368.3,313.9 				"/>
				<polygon class="st6" points="344,329.9 366.6,316.7 366.6,353.1 344,366.2 				"/>
			</g>
			<g>
				<polygon class="st6" points="386.7,301.5 414.9,285.2 414.9,328 386.7,344.3 				"/>
				<polygon class="st2" points="413.8,327.3 387.8,342.4 387.8,302.2 413.8,287.1 				"/>
				<polygon class="st6" points="389.5,303.1 412.2,290 412.2,326.4 389.5,339.5 				"/>
			</g>
		</g>
		<g>
			<g>
				<polygon class="st6" points="295.7,273.2 323.9,256.9 323.9,299.7 295.7,316 				"/>
				<polygon class="st2" points="322.8,299 296.8,314.1 296.8,273.9 322.8,258.8 				"/>
				<polygon class="st6" points="298.4,274.8 321.1,261.7 321.1,298.1 298.4,311.2 				"/>
			</g>
			<g>
				<polygon class="st6" points="341.2,246.5 369.4,230.2 369.4,272.9 341.2,289.3 				"/>
				<polygon class="st2" points="368.3,272.3 342.3,287.3 342.3,247.1 368.3,232.1 				"/>
				<polygon class="st6" points="344,248.1 366.6,235 366.6,271.3 344,284.4 				"/>
			</g>
			<g>
				<polygon class="st6" points="386.7,219.8 414.9,203.4 414.9,246.2 386.7,262.5 				"/>
				<polygon class="st2" points="413.8,245.6 387.8,260.6 387.8,220.4 413.8,205.4 				"/>
				<polygon class="st6" points="389.5,221.4 412.2,208.2 412.2,244.6 389.5,257.7 				"/>
			</g>
		</g>
		<g>
			<g>
				<polygon class="st6" points="295.7,190 323.9,173.6 323.9,216.4 295.7,232.7 				"/>
				<polygon class="st2" points="322.8,215.8 296.8,230.8 296.8,190.6 322.8,175.6 				"/>
				<polygon class="st6" points="298.4,191.6 321.1,178.4 321.1,214.8 298.4,227.9 				"/>
			</g>
			<g>
				<polygon class="st6" points="341.2,163.2 369.4,146.9 369.4,189.7 341.2,206 				"/>
				<polygon class="st2" points="368.3,189 342.3,204.1 342.3,163.9 368.3,148.8 				"/>
				<polygon class="st6" points="344,164.8 366.6,151.7 366.6,188.1 344,201.2 				"/>
			</g>
			<g>
				<polygon class="st6" points="386.7,136.5 414.9,120.2 414.9,162.9 386.7,179.3 				"/>
				<polygon class="st2" points="413.8,162.3 387.8,177.3 387.8,137.2 413.8,122.1 				"/>
				<polygon class="st6" points="412.2,125 412.2,161.3 400.4,168.2 389.5,174.5 389.5,138.1 407.8,127.5 				"/>
				<polygon class="st8" points="407.8,127.5 400.4,168.2 389.5,174.5 389.5,138.1 				"/>
				<polygon class="st8" points="362.3,154.2 354.9,194.9 344,201.2 344,164.8 				"/>
				<polygon class="st8" points="316.7,181 309.3,221.6 298.4,227.9 298.4,191.6 				"/>
				<polygon class="st8" points="407.8,211.1 400.4,251.7 389.5,258 389.5,221.7 				"/>
				<polygon class="st8" points="362.3,237.8 354.9,278.5 344,284.8 344,248.4 				"/>
				<polygon class="st8" points="316.7,264.5 309.3,305.2 298.4,311.5 298.4,275.1 				"/>
				<polygon class="st8" points="407.8,292.5 400.4,333.2 389.5,339.5 389.5,303.1 				"/>
				<polygon class="st8" points="362.3,319.2 354.9,359.9 344,366.2 344,329.8 				"/>
				<polygon class="st8" points="316.7,346 309.3,386.6 298.4,392.9 298.4,356.5 				"/>
				<polygon class="st8" points="407.8,374.4 400.4,415 389.5,421.3 389.5,385 				"/>
				<polygon class="st8" points="362.3,401.1 354.9,441.8 344,448.1 344,411.7 				"/>
				<polygon class="st8" points="316.7,427.8 309.3,468.5 298.4,474.8 298.4,438.4 				"/>
				<polygon class="st8" points="407.8,441.9 400.4,482.5 389.5,488.8 389.5,452.5 				"/>
				<polygon class="st8" points="362.3,488.5 354.9,529.1 344,535.4 344,499.1 				"/>
				<polygon class="st8" points="316.7,495.3 309.3,536 298.4,542.3 298.4,505.9 				"/>
			</g>
		</g>
		<g>
			<g>
				<g>
					<polygon class="st9" points="182,171.8 182,202.3 164.7,192.3 163.1,181 					"/>
					<polygon class="st1" points="217.3,153 203.1,144.8 189,136.7 189,158 189,201.4 203.1,209.6 217.3,217.7 217.3,174.4 					"/>
					<polygon class="st2" points="190.1,200.7 203.1,208.3 216.1,215.8 216.1,173.7 216.1,153.6 203.1,146.1 190.1,138.6 
						190.1,158.7 					"/>
					<polygon class="st1" points="214.5,154.6 203.1,148 191.8,141.5 191.8,159.6 191.8,199.8 203.1,206.3 214.5,212.9 214.5,172.8 
											"/>
					<polygon class="st10" points="229.5,199.2 229.5,219.7 212.1,229.7 212.1,209.3 					"/>
					<polygon class="st11" points="163.1,181 187.6,195.2 212.1,209.3 229.5,199.2 228,198.4 212.1,207.6 165.9,181 182,171.8 
						180.6,171 					"/>
					<polygon class="st9" points="212.1,209.3 212.1,229.7 187.6,215.6 163.1,201.5 163.1,181 187.6,195.1 					"/>
				</g>
				<g>
					<path class="st9" d="M233.7,201.6v30.5l-17.3-10l-1.6-11.3C214.7,210.8,233.8,201.3,233.7,201.6z"/>
					<polygon class="st1" points="268.9,182.7 254.8,174.6 240.7,166.4 240.7,187.8 240.7,231.1 254.8,239.3 268.9,247.5 
						268.9,204.1 					"/>
					<polygon class="st2" points="241.8,230.5 254.8,238 267.8,245.5 267.8,203.5 267.8,183.4 254.8,175.9 241.8,168.4 241.8,188.4 
											"/>
					<polygon class="st1" points="266.1,184.4 254.8,177.8 243.5,171.2 243.5,189.4 243.5,229.5 254.8,236.1 266.1,242.7 
						266.1,202.5 					"/>
					<polygon class="st11" points="281.1,229 281.1,249.4 263.7,259.4 263.7,239 					"/>
					<polygon class="st11" points="214.7,210.8 239.2,224.9 263.7,239 281.1,229 279.7,228.2 263.7,237.4 217.6,210.8 233.7,201.6 
						232.3,200.8 					"/>
					<polygon class="st9" points="263.7,239 263.7,259.4 239.2,245.3 214.7,231.2 214.7,210.8 239.2,224.9 					"/>
				</g>
			</g>
			<g>
				<g>
					<polygon class="st9" points="182,254.7 182,285.2 164.7,275.2 163.1,263.9 					"/>
					<polygon class="st1" points="217.3,235.9 203.1,227.7 189,219.5 189,240.9 189,284.2 203.1,292.4 217.3,300.6 217.3,257.2 
											"/>
					<polygon class="st2" points="190.1,283.6 203.1,291.1 216.1,298.6 216.1,256.6 216.1,236.5 203.1,229 190.1,221.5 190.1,241.6 
											"/>
					<polygon class="st1" points="214.5,237.5 203.1,230.9 191.8,224.3 191.8,242.5 191.8,282.6 203.1,289.2 214.5,295.8 
						214.5,255.6 					"/>
					<polygon class="st10" points="229.5,282.1 229.5,302.5 212.1,312.6 212.1,292.1 					"/>
					<polygon class="st11" points="163.1,263.9 187.6,278 212.1,292.1 229.5,282.1 228,281.3 212.1,290.5 165.9,263.9 182,254.7 
						180.6,253.9 					"/>
					<polygon class="st9" points="212.1,292.1 212.1,312.6 187.6,298.4 163.1,284.3 163.1,263.9 187.6,278 					"/>
				</g>
				<g>
					<path class="st9" d="M233.7,284.4v30.5l-17.3-10l-1.6-11.3C214.7,293.7,233.8,284.2,233.7,284.4z"/>
					<polygon class="st1" points="268.9,265.6 254.8,257.4 240.7,249.3 240.7,270.7 240.7,314 254.8,322.2 268.9,330.3 268.9,287 
											"/>
					<polygon class="st2" points="241.8,313.4 254.8,320.9 267.8,328.4 267.8,286.4 267.8,266.3 254.8,258.7 241.8,251.2 
						241.8,271.3 					"/>
					<polygon class="st1" points="266.1,267.2 254.8,260.7 243.5,254.1 243.5,272.3 243.5,312.4 254.8,319 266.1,325.5 266.1,285.4 
											"/>
					<polygon class="st11" points="281.1,311.9 281.1,332.3 263.7,342.3 263.7,321.9 					"/>
					<polygon class="st11" points="214.7,293.7 239.2,307.8 263.7,321.9 281.1,311.9 279.7,311 263.7,320.2 217.6,293.7 
						233.7,284.4 232.3,283.6 					"/>
					<polygon class="st9" points="263.7,321.9 263.7,342.3 239.2,328.2 214.7,314.1 214.7,293.7 239.2,307.8 					"/>
				</g>
			</g>
			<g>
				<g>
					<polygon class="st9" points="182,337.5 182,368 164.7,358 163.1,346.8 					"/>
					<polygon class="st1" points="217.3,318.7 203.1,310.6 189,302.4 189,323.8 189,367.1 203.1,375.3 217.3,383.4 217.3,340.1 
											"/>
					<polygon class="st2" points="190.1,366.5 203.1,374 216.1,381.5 216.1,339.5 216.1,319.4 203.1,311.8 190.1,304.3 190.1,324.4 
											"/>
					<polygon class="st1" points="214.5,320.3 203.1,313.8 191.8,307.2 191.8,325.4 191.8,365.5 203.1,372.1 214.5,378.6 
						214.5,338.5 					"/>
					<polygon class="st10" points="229.5,365 229.5,385.4 212.1,395.4 212.1,375 					"/>
					<polygon class="st11" points="163.1,346.8 187.6,360.9 212.1,375 229.5,365 228,364.1 212.1,373.4 165.9,346.8 182,337.5 
						180.6,336.7 					"/>
					<polygon class="st9" points="212.1,375 212.1,395.4 187.6,381.3 163.1,367.2 163.1,346.8 187.6,360.9 					"/>
				</g>
				<g>
					<path class="st9" d="M233.7,367.3v30.5l-17.3-10l-1.6-11.3C214.7,376.5,233.8,367,233.7,367.3z"/>
					<polygon class="st1" points="268.9,348.5 254.8,340.3 240.7,332.1 240.7,353.5 240.7,396.9 254.8,405 268.9,413.2 268.9,369.9 
											"/>
					<polygon class="st2" points="241.8,396.2 254.8,403.7 267.8,411.3 267.8,369.2 267.8,349.1 254.8,341.6 241.8,334.1 
						241.8,354.2 					"/>
					<polygon class="st1" points="266.1,350.1 254.8,343.5 243.5,336.9 243.5,355.1 243.5,395.3 254.8,401.8 266.1,408.4 
						266.1,368.3 					"/>
					<polygon class="st11" points="281.1,394.7 281.1,415.1 263.7,425.2 263.7,404.7 					"/>
					<polygon class="st11" points="214.7,376.5 239.2,390.6 263.7,404.7 281.1,394.7 279.7,393.9 263.7,403.1 217.6,376.5 
						233.7,367.3 232.3,366.5 					"/>
					<polygon class="st9" points="263.7,404.7 263.7,425.2 239.2,411.1 214.7,396.9 214.7,376.5 239.2,390.6 					"/>
				</g>
			</g>
			<g>
				<g>
					<polygon class="st9" points="182,420.4 182,450.9 164.7,440.9 163.1,429.6 					"/>
					<polygon class="st1" points="217.3,401.6 203.1,393.4 189,385.2 189,406.6 189,450 203.1,458.1 217.3,466.3 217.3,423 					"/>
					<polygon class="st2" points="190.1,449.3 203.1,456.8 216.1,464.4 216.1,422.3 216.1,402.2 203.1,394.7 190.1,387.2 
						190.1,407.3 					"/>
					<polygon class="st1" points="214.5,403.2 203.1,396.6 191.8,390.1 191.8,408.2 191.8,448.4 203.1,454.9 214.5,461.5 
						214.5,421.4 					"/>
					<polygon class="st10" points="229.5,447.8 229.5,468.3 212.1,478.3 212.1,457.9 					"/>
					<polygon class="st11" points="163.1,429.6 187.6,443.7 212.1,457.9 229.5,447.8 228,447 212.1,456.2 165.9,429.6 182,420.4 
						180.6,419.6 					"/>
					<polygon class="st9" points="212.1,457.9 212.1,478.3 187.6,464.2 163.1,450.1 163.1,429.6 187.6,443.7 					"/>
				</g>
				<g>
					<path class="st9" d="M233.7,450.2v30.5l-17.3-10l-1.6-11.3C214.7,459.4,233.8,449.9,233.7,450.2z"/>
					<polygon class="st1" points="268.9,431.3 254.8,423.2 240.7,415 240.7,436.4 240.7,479.7 254.8,487.9 268.9,496.1 268.9,452.7 
											"/>
					<polygon class="st2" points="241.8,479.1 254.8,486.6 267.8,494.1 267.8,452.1 267.8,432 254.8,424.5 241.8,416.9 241.8,437 
											"/>
					<polygon class="st1" points="266.1,432.9 254.8,426.4 243.5,419.8 243.5,438 243.5,478.1 254.8,484.7 266.1,491.3 266.1,451.1 
											"/>
					<polygon class="st11" points="281.1,477.6 281.1,498 263.7,508 263.7,487.6 					"/>
					<polygon class="st11" points="214.7,459.4 239.2,473.5 263.7,487.6 281.1,477.6 279.7,476.8 263.7,486 217.6,459.4 
						233.7,450.2 232.3,449.4 					"/>
					<polygon class="st9" points="263.7,487.6 263.7,508 239.2,493.9 214.7,479.8 214.7,459.4 239.2,473.5 					"/>
				</g>
			</g>
		</g>
	</g>
	<g>
		<polygon class="st1" points="383.3,454 383.3,517.9 381.5,519 379.7,520 352.6,535.7 350.8,536.7 349,537.7 342.2,541.7 
			340.4,542.7 338.6,543.8 338.6,480 		"/>
		<polygon class="st2" points="381.5,457.1 381.5,519 379.7,520 352.6,535.7 350.8,536.7 349,537.7 342.2,541.7 340.4,542.7 
			340.4,481 		"/>
		<polygon class="st1" points="379.7,460.2 379.7,520 352.6,535.7 350.8,536.7 349,537.7 342.2,541.7 342.2,482.1 		"/>
		<g>
			<g>
				<polygon class="st2" points="376.8,487.9 376.8,467.5 370.8,470.9 370.8,491.4 				"/>
				<polygon class="st6" points="371.5,490.1 376,487.5 376,468.8 371.5,471.4 				"/>
			</g>
			<g>
				<polygon class="st2" points="364,495.4 364,475 358,478.4 358,498.9 				"/>
				<polygon class="st6" points="358.7,497.6 363.2,495 363.2,476.3 358.7,478.8 				"/>
			</g>
			<g>
				<polygon class="st2" points="351.2,502.9 351.2,482.4 345.2,485.9 345.2,506.3 				"/>
				<polygon class="st6" points="345.9,505 350.4,502.4 350.4,483.7 345.9,486.3 				"/>
			</g>
		</g>
	</g>
	<polygon class="st12" points="336.9,478 336.9,507.7 381.3,481.5 381.3,452.2 	"/>
</g>
<g>
	<g class="st13">
		<g>
			<polygon class="st14" points="400.9,461.1 400.9,463.2 356.5,489.4 356.5,487.3 			"/>
		</g>
		<g>
			<polygon class="st1" points="356.5,487.3 356.5,489.4 336.9,478 336.9,475.9 			"/>
		</g>
		<g>
			<polygon class="st15" points="400.9,461.1 356.5,487.3 336.9,475.9 381.3,449.6 			"/>
		</g>
	</g>
</g>
<rect x="625" y="-152.6" class="st0" width="135.9" height="287.7"/>
<rect x="615.1" y="205.7" class="st1" width="127.9" height="105.7"/>
</svg>
